<?xml version="1.0" standalone="no"?>
<!DOCTYPE svg PUBLIC "-//W3C//DTD SVG 20010904//EN"
 "http://www.w3.org/TR/2001/REC-SVG-20010904/DTD/svg10.dtd">
<svg version="1.0" xmlns="http://www.w3.org/2000/svg"
 width="308.000000pt" height="663.000000pt" viewBox="0 0 308.000000 663.000000"
 preserveAspectRatio="xMidYMid meet">
<metadata>
Created by potrace 1.16, written by Peter Selinger 2001-2019
</metadata>
<g transform="translate(0.000000,663.000000) scale(0.100000,-0.100000)"
fill="#000000" stroke="none">
<path d="M1785 6409 c50 -5 114 -13 144 -19 30 -5 75 -10 100 -10 136 0 503
-140 628 -239 92 -73 140 -202 162 -441 20 -213 8 -1131 -14 -1120 -6 3 -10
195 -10 545 0 547 -5 624 -41 770 -24 99 -70 181 -124 224 -67 53 -274 153
-256 123 3 -6 19 -13 34 -17 15 -3 46 -17 67 -31 l40 -25 -35 6 c-19 4 -53 15
-75 25 -22 10 -53 22 -70 25 -21 4 -13 -3 28 -24 125 -65 212 -140 232 -196
14 -42 41 -58 47 -28 2 14 9 9 27 -20 27 -44 42 -99 31 -117 -7 -11 -27 11
-80 92 -14 20 -34 39 -45 42 -11 3 -28 18 -37 34 -22 36 -127 135 -179 168
-64 40 -68 27 -5 -15 67 -44 152 -124 170 -161 7 -14 21 -65 30 -115 9 -49 23
-124 31 -165 13 -68 14 -70 10 -20 -3 30 -8 76 -11 103 -5 31 -3 47 4 47 19 0
83 -72 107 -121 13 -25 36 -60 50 -77 42 -50 48 -132 40 -477 -5 -165 -9 -359
-10 -430 -2 -112 -5 -136 -24 -173 -12 -23 -26 -40 -30 -38 -5 3 -12 56 -15
118 -4 62 -16 205 -27 318 -11 113 -26 283 -35 379 -8 96 -21 202 -29 235 -18
83 -18 34 0 -104 35 -272 90 -927 79 -953 -3 -6 -25 -25 -51 -40 l-45 -28 -37
38 c-101 106 -292 179 -596 230 -154 25 -514 25 -670 -1 -304 -50 -505 -128
-602 -234 l-32 -34 -29 21 c-17 11 -34 21 -40 21 -31 0 -33 28 -17 250 9 122
14 224 12 226 -10 11 -39 -412 -31 -463 8 -51 -8 -57 -27 -10 -7 17 -20 43
-30 57 -14 21 -17 59 -20 250 -2 124 -3 351 -1 505 3 274 4 281 28 330 28 58
51 88 81 103 11 6 24 23 27 38 4 14 18 43 31 65 14 21 25 43 25 48 0 5 7 14
15 21 18 15 18 17 1 -67 -22 -105 -58 -386 -54 -418 2 -17 9 20 16 80 11 88
40 277 67 431 12 75 116 179 249 249 285 151 807 177 1191 59 28 -8 58 -20 68
-25 10 -6 30 -14 45 -20 25 -9 26 -8 7 6 -11 8 -25 18 -30 23 -6 5 -22 11 -35
14 -14 3 -68 17 -120 32 -152 42 -270 57 -445 58 -332 0 -576 -57 -755 -176
-62 -41 -138 -114 -165 -157 -13 -20 -37 -42 -54 -49 -17 -6 -33 -20 -36 -29
-2 -9 -13 -21 -23 -27 -16 -10 -17 -8 -14 22 4 30 22 50 22 23 0 -5 5 -7 10
-4 6 3 10 17 10 31 0 16 -4 23 -11 18 -8 -5 -8 -1 0 14 9 17 62 60 137 112 84
58 112 76 134 87 14 6 20 12 14 12 -27 2 -192 -73 -231 -105 -23 -19 -47 -34
-53 -34 -23 0 -3 25 43 56 58 38 64 44 40 38 -31 -8 -115 -76 -140 -113 -94
-139 -119 -383 -108 -1046 5 -345 9 -443 20 -455 37 -42 105 -222 170 -453 9
-32 19 -56 21 -54 5 5 -58 237 -81 297 -8 21 -11 55 -8 83 6 47 6 47 26 30 17
-16 19 -26 14 -80 -5 -51 -4 -63 8 -63 8 0 15 -2 15 -5 0 -11 54 -208 85 -310
57 -186 103 -377 110 -450 11 -112 11 -148 -1 -152 -6 -2 -17 41 -27 109 -10
62 -26 142 -36 178 -10 36 -36 129 -56 208 -21 78 -40 141 -42 139 -2 -3 23
-110 56 -238 73 -287 81 -346 91 -674 15 -512 -15 -1044 -76 -1345 -24 -114
-37 -140 -72 -140 -44 0 -120 57 -177 133 l-50 66 -3 -162 c-4 -244 12 -442
46 -562 16 -55 41 -161 56 -235 52 -264 78 -340 133 -392 56 -53 181 -89 453
-129 175 -27 609 -37 801 -20 163 15 348 44 449 70 183 47 226 89 269 257 30
119 73 335 68 341 -5 4 -22 -69 -49 -202 -8 -40 -13 -52 -16 -36 -2 13 1 42 7
65 5 23 10 48 10 56 0 8 7 53 15 100 9 47 23 148 31 225 9 77 18 147 20 155 6
20 27 270 29 348 2 36 8 67 15 75 11 10 12 -30 7 -223 -7 -265 -18 -372 -47
-447 -12 -28 -19 -64 -17 -79 2 -20 11 1 31 72 34 124 49 309 45 554 l-3 175
-25 -40 c-13 -21 -32 -47 -41 -56 -10 -10 -15 -26 -12 -37 3 -12 -3 -27 -15
-38 -38 -36 -48 -128 -16 -151 17 -12 17 -15 0 -69 -12 -39 -19 -98 -21 -188
-4 -173 -16 -284 -40 -396 -8 -36 -17 -76 -20 -90 -5 -27 -54 -90 -70 -90 -6
0 -20 -22 -32 -49 -13 -26 -30 -55 -40 -62 -10 -8 -14 -9 -10 -2 4 6 12 49 18
95 6 54 19 100 36 133 20 39 35 101 64 280 38 236 71 406 85 439 6 16 4 17
-17 11 -13 -4 -29 -13 -35 -21 -11 -14 -37 -139 -54 -258 -5 -43 -17 -81 -30
-98 -12 -16 -24 -46 -28 -66 l-6 -37 -7 30 c-3 17 -4 62 -1 102 6 91 -35 514
-64 653 -19 92 -19 254 1 270 8 7 15 9 15 5 0 -4 11 -80 25 -169 45 -293 53
-316 117 -316 42 0 87 19 119 51 33 33 21 42 -18 11 -72 -56 -124 -68 -142
-34 -54 100 -108 591 -113 1020 -1 106 -5 189 -9 185 -4 -5 -9 -73 -11 -153
-2 -80 -9 -153 -14 -163 -16 -28 -26 341 -14 483 5 63 10 149 10 190 0 41 5
82 10 90 7 10 10 -53 9 -202 -2 -120 1 -221 5 -225 4 -4 12 0 17 10 22 38 29
-1 29 -162 0 -418 69 -1040 117 -1058 32 -12 118 66 189 172 l39 60 2 583 c2
572 4 625 33 607 11 -7 3 -1633 -10 -1777 -7 -83 -21 -162 -39 -225 -16 -54
-45 -178 -65 -276 -58 -281 -90 -344 -201 -397 -34 -16 -70 -30 -78 -30 -9 0
-19 -4 -22 -10 -9 -14 -5 -13 76 17 98 36 139 81 191 208 13 32 47 187 53 245
4 30 9 58 12 64 3 5 12 34 18 65 7 31 24 99 38 152 40 151 46 355 47 1648 0
646 2 1177 5 1180 3 2 14 -5 25 -17 23 -25 83 -30 97 -9 29 45 30 74 5 135
-23 58 -58 100 -122 145 l-25 17 -3 193 c-1 105 -3 203 -5 217 -1 14 2 178 6
365 9 373 -2 697 -28 833 -41 217 -110 310 -290 396 -114 55 -332 130 -420
145 -102 18 -319 41 -366 40 -26 -1 -8 -5 46 -10z m32 -1679 c230 -18 422 -65
589 -145 116 -56 174 -105 174 -149 0 -12 -7 -45 -15 -72 -8 -27 -22 -87 -30
-134 -19 -101 -52 -209 -70 -230 -19 -23 -47 -126 -55 -208 -4 -40 -10 -76
-14 -79 -4 -4 -44 3 -89 16 -281 77 -959 83 -1307 11 -52 -11 -103 -20 -112
-20 -13 0 -25 27 -52 113 -80 256 -139 484 -144 555 l-5 73 51 48 c170 159
636 255 1079 221z m833 -405 c0 -13 -6 -36 -14 -52 -8 -15 -20 -55 -26 -88 -7
-33 -16 -69 -20 -80 -21 -56 -50 -163 -50 -187 0 -15 -4 -30 -10 -33 -5 -3
-10 -22 -10 -41 0 -19 -4 -42 -9 -52 -11 -21 -28 -87 -45 -167 -6 -33 -16 -60
-22 -60 -18 0 -15 82 6 134 11 28 20 67 20 86 0 19 4 35 9 35 4 0 11 27 15 60
4 33 24 104 45 158 22 53 41 124 45 157 5 52 27 132 42 157 9 14 24 -2 24 -27z
m-694 -580 c149 -13 327 -49 393 -78 23 -11 23 -14 18 -92 -3 -44 -13 -100
-22 -125 -11 -30 -17 -87 -19 -170 -2 -70 -13 -181 -26 -253 l-23 -127 26 -58
c23 -53 25 -71 31 -280 3 -122 11 -317 17 -433 10 -181 9 -213 -3 -225 -19
-19 -221 -60 -396 -80 -352 -41 -936 6 -1032 84 -22 18 -23 20 -12 133 10 101
29 755 24 819 -2 14 -5 114 -8 224 -4 143 -2 206 7 227 17 44 12 122 -11 167
-12 23 -23 69 -27 109 -6 69 -6 70 23 80 16 6 51 14 78 17 27 3 74 15 105 27
120 43 557 61 857 34z m825 -756 c21 -21 21 -27 15 -208 -4 -102 -12 -222 -18
-266 -6 -44 -10 -152 -10 -240 2 -286 -23 -485 -61 -485 -7 0 -8 60 -4 173 8
197 15 259 30 250 6 -4 8 101 4 313 -5 289 -4 319 11 330 16 11 15 14 -2 32
-19 22 -15 42 10 42 21 0 17 38 -6 50 -11 6 -18 15 -15 21 9 14 23 11 46 -12z
m-98 -36 c-4 -10 -11 -21 -17 -25 -6 -4 -5 -12 3 -21 22 -27 23 -145 7 -569
-21 -537 -27 -606 -58 -630 -31 -24 -40 -19 -54 28 -48 165 -82 524 -86 904
l-3 255 30 3 c17 2 34 10 38 18 4 8 16 14 25 14 9 1 33 9 52 20 46 25 72 26
63 3z m-1817 -772 c-4 -58 -13 -162 -21 -231 -8 -69 -23 -208 -34 -310 -10
-102 -24 -214 -31 -250 -7 -36 -11 -101 -10 -145 1 -44 2 -93 2 -110 0 -16 -4
-73 -9 -125 -10 -89 -10 -91 -12 -33 0 34 -5 65 -11 68 -5 3 -10 29 -10 56 0
28 -5 59 -11 70 -6 12 -11 42 -11 67 0 51 -52 309 -64 322 -13 12 -35 -37 -30
-65 3 -16 10 -70 16 -120 6 -49 18 -119 25 -155 8 -36 28 -146 45 -245 19
-109 41 -199 55 -230 26 -57 43 -165 25 -165 -6 0 -20 21 -30 46 -11 25 -34
59 -50 76 -46 45 -60 80 -80 197 -19 112 -48 355 -54 456 -5 87 -25 253 -37
304 -5 24 -7 46 -5 49 3 2 23 -10 44 -27 22 -17 45 -31 51 -31 6 0 11 -4 11
-9 0 -14 51 -20 76 -9 12 6 27 20 33 32 15 29 43 134 46 176 2 19 11 98 20
175 9 77 18 167 21 200 3 33 7 76 10 95 l6 35 15 -29 c13 -24 14 -50 9 -135z
m162 -355 c324 -74 922 -72 1224 5 42 10 88 19 102 19 30 0 23 46 67 -430 7
-69 10 -158 7 -199 -3 -67 -6 -76 -33 -97 -86 -69 -291 -135 -512 -164 -106
-14 -381 -14 -501 0 -198 22 -454 105 -519 167 l-36 33 7 158 c3 87 13 201 20
253 8 52 17 136 21 187 8 108 -3 103 153 68z m-192 -695 c45 -54 192 -116 364
-155 163 -37 491 -49 697 -26 214 23 436 97 520 174 l40 36 12 -57 c16 -82 14
-306 -5 -449 -14 -103 -21 -127 -40 -145 -40 -38 -261 -80 -559 -108 l-90 -8
75 -2 c79 -1 225 13 300 29 25 5 72 15 105 21 33 7 65 14 70 15 6 2 26 8 45
13 65 18 170 59 205 80 40 23 43 18 16 -22 -53 -81 -236 -130 -646 -173 -451
-47 -1142 35 -1256 148 -45 45 -39 63 13 37 39 -20 98 -42 196 -73 23 -8 44
-11 47 -6 2 4 -14 10 -36 14 -25 4 -52 17 -68 34 -25 24 -29 41 -45 158 -24
169 -16 494 11 494 2 0 15 -13 29 -29z"/>
<path d="M1121 3524 c-24 -8 -58 -30 -77 -48 l-32 -32 -7 -129 c-4 -72 -2
-179 3 -239 11 -116 25 -149 73 -173 20 -10 21 -13 6 -19 -18 -6 -24 -44 -8
-44 5 0 17 8 27 17 15 16 60 17 526 19 564 3 530 -1 585 71 l28 37 0 230 c0
227 0 232 -24 262 -43 58 -35 57 -566 61 -429 3 -495 1 -534 -13z m1025 -25
c79 -38 84 -56 84 -291 0 -196 -1 -206 -22 -238 -13 -18 -39 -41 -58 -52 -33
-17 -62 -18 -530 -16 -551 3 -525 0 -570 73 -19 30 -20 50 -21 234 -1 231 5
251 84 290 41 20 55 21 516 21 460 0 476 -1 517 -21z"/>
<path d="M1120 3471 c-58 -30 -65 -55 -68 -246 -4 -198 4 -237 57 -272 l34
-23 487 0 487 0 34 23 c50 33 58 69 58 257 1 140 -2 171 -18 206 -34 75 -25
74 -563 74 -441 0 -476 -1 -508 -19z"/>
<path d="M2365 1049 c-204 -112 -559 -167 -900 -141 -248 20 -411 59 -558 135
-43 22 -81 36 -85 32 -11 -11 -6 -290 7 -405 7 -58 19 -115 27 -127 14 -22 98
-54 138 -52 12 0 -8 9 -44 19 -63 18 -100 46 -100 76 0 19 6 18 53 -14 23 -16
73 -40 112 -53 67 -23 68 -24 35 -29 -31 -5 -28 -6 33 -18 319 -60 838 -58
1102 3 l60 14 -60 -4 -60 -4 45 13 c80 24 134 46 187 76 47 27 53 28 53 12 0
-31 -37 -60 -95 -73 -30 -7 -53 -14 -51 -16 3 -3 29 1 60 8 78 17 92 36 105
144 15 124 24 384 14 416 l-8 26 -70 -38z m64 -96 c0 -60 -3 -146 -8 -193 -9
-81 -11 -86 -47 -119 -124 -109 -355 -156 -754 -156 -269 1 -410 17 -552 61
-71 23 -171 84 -206 127 -25 30 -47 377 -24 377 3 0 46 -16 96 -36 170 -68
257 -89 448 -109 176 -19 325 -19 500 0 204 21 358 62 478 125 30 16 58 29 62
30 3 0 6 -48 7 -107z"/>
<path d="M1410 6284 c-72 -9 -243 -46 -293 -64 -150 -52 -279 -133 -329 -206
-28 -41 -61 -169 -72 -284 l-5 -55 15 65 c8 36 22 79 30 96 9 18 13 41 9 56
-4 15 -2 29 4 32 6 4 11 20 11 35 0 36 27 70 100 126 59 45 82 55 76 33 -2 -7
-11 -38 -20 -68 -9 -30 -25 -93 -36 -139 -11 -47 -29 -103 -39 -125 -11 -23
-22 -68 -26 -101 -6 -54 -23 -140 -85 -420 -10 -49 -35 -191 -55 -315 -45
-287 -44 -280 -62 -280 -14 0 -15 13 -9 98 16 245 18 287 13 282 -3 -3 -13
-117 -23 -254 l-18 -248 23 -19 c13 -11 26 -19 30 -19 3 0 30 20 60 44 271
223 982 296 1505 155 134 -36 257 -92 336 -155 58 -46 60 -46 85 -30 23 15 25
22 24 84 -1 67 -1 67 -10 22 -5 -25 -6 -53 -3 -64 5 -16 -9 -35 -28 -36 -3 0
-6 17 -5 38 1 61 -10 181 -27 282 -8 52 -21 129 -27 170 -6 41 -20 109 -30
150 -28 118 -58 267 -74 367 -7 51 -25 121 -38 155 -14 35 -39 128 -56 208
-16 80 -37 165 -46 189 -9 24 -13 46 -11 49 3 2 26 -16 51 -42 25 -25 52 -46
59 -46 7 0 25 -13 40 -29 31 -32 48 -95 66 -241 6 -52 18 -120 26 -151 8 -30
21 -134 29 -230 8 -96 20 -208 25 -249 5 -41 17 -154 25 -250 9 -96 18 -184
20 -195 7 -38 -6 220 -15 310 -6 50 -17 160 -25 245 -21 211 -61 504 -86 624
-22 109 -35 131 -122 203 -92 76 -239 139 -412 175 -81 17 -142 21 -320 23
-121 2 -236 1 -255 -1z m453 -15 c82 -12 297 -65 333 -81 39 -18 79 -118 129
-322 19 -78 42 -162 50 -186 15 -41 25 -88 69 -340 8 -47 24 -119 35 -160 10
-41 22 -102 26 -135 3 -33 15 -121 26 -195 12 -74 22 -160 24 -190 1 -30 6
-63 10 -73 6 -14 -13 -8 -76 26 -193 104 -370 149 -699 177 -197 17 -428 1
-654 -46 -153 -32 -266 -74 -368 -135 -45 -27 -83 -47 -86 -45 -2 3 1 19 7 37
6 18 11 55 11 83 1 28 7 87 15 131 9 44 29 161 45 260 17 99 39 214 50 255 11
41 35 153 55 249 19 96 42 187 49 203 8 16 24 68 36 116 52 217 64 248 110
277 40 25 196 69 318 90 96 16 389 19 485 4z"/>
<path d="M423 4703 c-1 -454 -4 -493 -37 -493 -22 0 -95 -87 -122 -143 -31
-67 -31 -101 1 -132 30 -31 38 -31 92 0 23 14 43 22 44 18 0 -4 0 -541 0
-1193 0 -1237 6 -1477 40 -1605 33 -122 66 -266 94 -408 16 -75 32 -137 38
-137 5 0 6 7 3 15 -3 9 -22 95 -42 193 -20 97 -49 221 -64 274 -51 172 -53
241 -54 1620 -1 698 -2 1268 -3 1268 -1 0 -25 -14 -54 -30 -58 -35 -81 -33
-99 10 -25 60 43 187 126 236 l44 26 1 166 c0 92 2 196 5 232 2 36 0 171 -4
300 -7 221 -8 208 -9 -217z"/>
<path d="M464 4348 c-9 -156 -10 -163 -30 -166 -69 -10 -179 -189 -134 -217 6
-4 41 12 79 34 37 23 69 41 72 41 2 0 2 -206 0 -458 l-3 -458 69 -46 c84 -56
131 -80 217 -112 l66 -25 -1 132 c-1 73 -4 173 -9 222 -4 54 -5 4 -2 -122 4
-164 2 -213 -7 -213 -18 0 -156 65 -191 90 l-30 21 1 277 c0 152 5 329 10 392
6 63 12 173 15 245 3 71 7 131 9 133 2 3 11 -11 19 -29 l16 -34 -6 35 c-13 71
-135 420 -147 420 -3 0 -8 -73 -13 -162z m74 -200 c5 -38 -10 -60 -55 -82 -63
-31 -66 -32 -125 -65 -53 -30 -58 -31 -58 -13 0 34 27 85 69 134 42 48 64 57
131 54 30 -1 35 -5 38 -28z m-12 -133 c3 -14 3 -44 0 -68 -4 -23 -9 -137 -11
-252 -5 -206 -17 -388 -33 -492 -5 -29 -4 -59 0 -67 7 -12 5 -14 -7 -10 -14 6
-15 49 -9 448 6 389 9 442 23 453 23 18 30 16 37 -12z"/>
<path d="M453 2488 l3 -583 51 -75 c54 -81 127 -148 164 -152 20 -3 25 5 39
62 25 94 58 340 71 525 17 231 18 637 1 641 -7 1 -8 0 -2 -3 24 -11 6 -512
-30 -833 -26 -235 -57 -380 -80 -380 -55 0 -77 124 -85 482 -3 147 -10 318
-15 380 -5 62 -10 156 -10 209 0 104 -7 159 -21 159 -5 0 -9 -7 -9 -15 0 -17
-16 -20 -25 -5 -15 25 -23 5 -18 -45 4 -36 2 -55 -5 -55 -6 0 -13 8 -16 18 -6
24 -7 222 -1 222 14 0 65 -31 66 -40 1 -6 2 -14 3 -19 2 -15 16 -26 16 -13 0
18 15 15 113 -23 49 -20 91 -34 93 -32 3 2 -17 12 -43 22 -68 26 -172 79 -212
109 -19 14 -38 26 -42 26 -4 0 -7 -262 -6 -582z"/>
</g>
</svg>
